<svg xmlns="http://www.w3.org/2000/svg" width="560" height="360" viewBox="0 0 560 360" role="img" aria-label="Local translation preview">
  <defs>
    <linearGradient id="panel" x1="0" x2="1" y1="0" y2="1">
      <stop offset="0" stop-color="#f8fbff"/>
      <stop offset="1" stop-color="#eef7f2"/>
    </linearGradient>
    <filter id="shadow" x="-20%" y="-20%" width="140%" height="140%">
      <feDropShadow dx="0" dy="16" stdDeviation="18" flood-color="#24405f" flood-opacity=".16"/>
    </filter>
  </defs>
  <rect width="560" height="360" rx="28" fill="url(#panel)"/>
  <g filter="url(#shadow)">
    <rect x="74" y="58" width="412" height="244" rx="18" fill="#fff"/>
  </g>
  <rect x="104" y="92" width="178" height="16" rx="8" fill="#1f2937"/>
  <rect x="104" y="126" width="286" height="12" rx="6" fill="#dbe7f5"/>
  <rect x="104" y="148" width="238" height="12" rx="6" fill="#dbe7f5"/>
  <rect x="104" y="170" width="306" height="12" rx="6" fill="#dbe7f5"/>
  <rect x="104" y="212" width="132" height="42" rx="12" fill="#0f766e"/>
  <path d="M143 233h42" stroke="#fff" stroke-width="8" stroke-linecap="round"/>
  <path d="M185 219l18 14-18 14" fill="none" stroke="#fff" stroke-width="8" stroke-linecap="round" stroke-linejoin="round"/>
  <g>
    <rect x="302" y="92" width="126" height="42" rx="12" fill="#eaf2ff"/>
    <text x="320" y="120" fill="#1d4ed8" font-family="Arial, sans-serif" font-size="24" font-weight="700">译</text>
    <rect x="302" y="154" width="154" height="72" rx="14" fill="#f4faf6"/>
    <path d="M322 178h92M322 198h118" stroke="#6aa884" stroke-width="10" stroke-linecap="round"/>
  </g>
  <circle cx="424" cy="248" r="30" fill="#f59e0b"/>
  <path d="M413 249l8 8 18-22" fill="none" stroke="#fff" stroke-width="7" stroke-linecap="round" stroke-linejoin="round"/>
</svg>
